<svg width="1920" height="700" viewBox="0 0 1920 700" fill="none" xmlns="http://www.w3.org/2000/svg">
  <rect width="1920" height="700" rx="0" fill="#FFF7F7"/>
  <rect x="0" y="0" width="1920" height="700" fill="url(#bg)"/>
  <circle cx="1640" cy="180" r="220" fill="#FFD7E3" fill-opacity="0.65"/>
  <circle cx="280" cy="560" r="280" fill="#F5D6CF" fill-opacity="0.75"/>
  <rect x="134" y="132" width="660" height="420" rx="36" fill="white" fill-opacity="0.92"/>
  <rect x="180" y="188" width="244" height="300" rx="24" fill="#1E1920"/>
  <rect x="454" y="188" width="220" height="220" rx="24" fill="#F6C7D7"/>
  <rect x="454" y="430" width="220" height="58" rx="16" fill="#171212"/>
  <path d="M846 452C846 390.026 894.026 342 956 342H1546C1607.97 342 1656 390.026 1656 452V520H846V452Z" fill="#171212" fill-opacity="0.9"/>
  <rect x="892" y="188" width="432" height="116" rx="24" fill="#FFFFFF" fill-opacity="0.92"/>
  <rect x="892" y="340" width="306" height="22" rx="11" fill="#171212" fill-opacity="0.16"/>
  <rect x="892" y="378" width="272" height="22" rx="11" fill="#171212" fill-opacity="0.12"/>
  <rect x="892" y="416" width="228" height="22" rx="11" fill="#171212" fill-opacity="0.1"/>
  <defs>
    <linearGradient id="bg" x1="0" y1="0" x2="1920" y2="700" gradientUnits="userSpaceOnUse">
      <stop stop-color="#FFF4F6"/>
      <stop offset="0.55" stop-color="#FFE9E2"/>
      <stop offset="1" stop-color="#F8D4E0"/>
    </linearGradient>
  </defs>
</svg>
